<?xml version="1.0" encoding="UTF-8" standalone="no"?>
<!-- Created with Inkscape (http://www.inkscape.org/) -->

<svg
   width="512"
   height="512"
   viewBox="0 0 135.46666 135.46667"
   version="1.1"
   id="svg1"
   inkscape:version="1.4 (e7c3feb100, 2024-10-09)"
   sodipodi:docname="logo.svg"
   inkscape:export-filename="logo.png"
   inkscape:export-xdpi="96"
   inkscape:export-ydpi="96"
   xmlns:inkscape="http://www.inkscape.org/namespaces/inkscape"
   xmlns:sodipodi="http://sodipodi.sourceforge.net/DTD/sodipodi-0.dtd"
   xmlns="http://www.w3.org/2000/svg"
   xmlns:svg="http://www.w3.org/2000/svg">
  <sodipodi:namedview
     id="namedview1"
     pagecolor="#ffffff"
     bordercolor="#111111"
     borderopacity="1"
     inkscape:showpageshadow="0"
     inkscape:pageopacity="0"
     inkscape:pagecheckerboard="1"
     inkscape:deskcolor="#d1d1d1"
     inkscape:document-units="mm"
     inkscape:zoom="1"
     inkscape:cx="389.5"
     inkscape:cy="365.5"
     inkscape:window-width="1920"
     inkscape:window-height="1080"
     inkscape:window-x="1280"
     inkscape:window-y="1080"
     inkscape:window-maximized="1"
     inkscape:current-layer="layer1" />
  <defs
     id="defs1">
    <rect
       x="118"
       y="176"
       width="219"
       height="161"
       id="rect5" />
    <rect
       x="113"
       y="256"
       width="288"
       height="133"
       id="rect4" />
    <rect
       x="135"
       y="270"
       width="218"
       height="100"
       id="rect3" />
  </defs>
  <g
     inkscape:label="Layer 1"
     inkscape:groupmode="layer"
     id="layer1">
    <rect
       style="fill:#f9f9f9;fill-opacity:1;stroke:none;stroke-width:2.74248;stroke-linecap:round;stroke-linejoin:round;stroke-miterlimit:2;stroke-dasharray:none;stroke-opacity:1"
       id="rect6"
       width="89.693748"
       height="59.002083"
       x="25.4"
       y="35.983334"
       rx="3.1197417" />
    <text
       xml:space="preserve"
       transform="scale(0.26458333)"
       id="text3"
       style="font-size:192px;line-height:1.25;font-family:sans-serif;text-align:center;letter-spacing:0px;word-spacing:0px;white-space:pre;shape-inside:url(#rect3);display:inline"><tspan
         x="135"
         y="539.875"
         id="tspan2"><tspan
           dx="0 74.71875"
           style="font-size:96px;fill:#3996a3"
           id="tspan1">OV</tspan></tspan></text>
    <path
       fill="currentColor"
       d="m 69.723783,79.133224 q 0,-3.308812 -0.4653,-6.074772 -0.4653,-2.765961 -1.52515,-5.325119 -1.05986,-2.559161 -3.12787,-4.032615 -2.068,-1.473457 -5.01491,-1.473457 -0.3102,0.206802 -1.55101,0.930604 -1.2408,0.723803 -1.93876,1.111553 -0.69795,0.387753 -1.83535,0.904754 -1.13741,0.517003 -2.22311,0.749653 -1.08571,0.232652 -2.17141,0.232652 -1.0857,0 -2.17141,-0.232652 -1.0857,-0.23265 -2.22311,-0.749653 -1.1374,-0.517001 -1.83535,-0.904754 -0.69795,-0.38775 -1.93876,-1.111553 -1.2408,-0.723802 -1.551,-0.930604 -2.94692,0 -5.01492,1.473457 -2.06801,1.473454 -3.12786,4.032615 -1.05986,2.559158 -1.52516,5.325119 -0.4653,2.76596 -0.4653,6.074772 0,3.308814 1.9129,5.506071 1.91291,2.197258 4.70472,2.197258 h 26.4705 q 2.79181,0 4.70472,-2.197258 1.9129,-2.197257 1.9129,-5.506071 m -8.11693,-26.884099 q 0,-4.859818 -3.43806,-8.297882 -3.43806,-3.438062 -8.29788,-3.438062 -4.85982,0 -8.29788,3.438062 -3.43806,3.438064 -3.43806,8.297882 0,4.859817 3.43806,8.29788 3.43806,3.438064 8.29788,3.438064 4.85982,0 8.29788,-3.438064 3.43806,-3.438063 3.43806,-8.29788 M 109.42954,78.564523 V 75.25571 q 0,-0.723802 -0.46531,-1.189104 -0.4653,-0.465301 -1.1891,-0.465301 H 77.995823 q -0.72381,0 -1.18911,0.465301 -0.4653,0.465302 -0.4653,1.189104 v 3.308813 q 0,0.723802 0.4653,1.189103 0.4653,0.465302 1.18911,0.465302 h 29.779307 q 0.7238,0 1.1891,-0.465302 0.46531,-0.465301 0.46531,-1.189103 m 0,-13.44205 v -2.895212 q 0,-0.775503 -0.54286,-1.318354 -0.54285,-0.542853 -1.31835,-0.542853 H 78.202623 q -0.77551,0 -1.31836,0.542853 -0.54285,0.542851 -0.54285,1.318354 v 2.895212 q 0,0.775502 0.54285,1.318353 0.54285,0.542853 1.31836,0.542853 h 29.365707 q 0.7755,0 1.31835,-0.542853 0.54286,-0.542851 0.54286,-1.318353 m 0,-13.028449 v -3.308811 q 0,-0.723804 -0.46531,-1.189106 -0.4653,-0.465301 -1.1891,-0.465301 H 77.995823 q -0.72381,0 -1.18911,0.465301 -0.4653,0.465302 -0.4653,1.189106 v 3.308811 q 0,0.723804 0.4653,1.189105 0.4653,0.465302 1.18911,0.465302 h 29.779307 q 0.7238,0 1.1891,-0.465302 0.46531,-0.465301 0.46531,-1.189105 m 13.23525,-16.544061 v 62.867434 q 0,3.412213 -2.42991,5.842123 -2.42991,2.42991 -5.84213,2.42991 H 96.194293 v -4.96322 q 0,-0.7238 -0.4653,-1.18911 -0.46531,-0.4653 -1.18911,-0.4653 h -3.30881 q -0.7238,0 -1.18911,0.4653 -0.4653,0.46531 -0.4653,1.18911 v 4.96322 h -39.70575 v -4.96322 q 0,-0.7238 -0.4653,-1.18911 -0.4653,-0.4653 -1.1891,-0.4653 h -3.30882 q -0.7238,0 -1.1891,0.4653 -0.4653,0.46531 -0.4653,1.18911 v 4.96322 h -18.19847 q -3.41221,0 -5.84212,-2.42991 -2.42991,-2.42991 -2.42991,-5.842123 V 35.549963 q 0,-3.412213 2.42991,-5.842122 2.42991,-2.429909 5.84212,-2.429909 h 89.337927 q 3.41222,0 5.84213,2.429909 2.42991,2.429909 2.42991,5.842122"
       id="path1-6"
       style="stroke-width:2.65200008;fill:#9469e3;fill-opacity:1;stroke:#020103;stroke-opacity:1;stroke-dasharray:none" />
  </g>
</svg>
